<svg xmlns="http://www.w3.org/2000/svg" viewBox="0 0 463.29 142.97"><defs><style>.cls-1{fill:#d4d4d4;}.cls-2{fill:#154f9a;}.cls-3{fill:#fff;}.cls-4{fill:#565656;}.cls-5{fill:#939393;}</style></defs><g id="Calque_2" data-name="Calque 2"><g id="Calque_10" data-name="Calque 10"><path class="cls-1" d="M69.54,115.41l63.8,24.45L197,143H312.56l49.21-5,88.09,5s3.26-10.75,2.07-10.75-55.43-3-55.43-3l-48.95-4.54-53.21,1.07-102.73-4.57-40.2-1.09-36.91,3.82-45-8.47"/><path class="cls-2" d="M255.26.05C226.47-.54,110.85,2.65,78.64,89.93l-4.9-9.43L64.36,92.31s6,22.6,23.8,17.84c0,0,10.71-1.19,14.28,3.57,0,0,17.25,8.33,18.73-8.92s21.72-23.2,21.72-23.2,19-4.76,34.5,11.89a25.74,25.74,0,0,1,5.88,18.09,4.76,4.76,0,0,0,4,5c14.7,2.39,65.85,9,164.22,4.62a8.2,8.2,0,0,0,7.71-6.57c2.49-12.63,11.15-39.87,39.52-38.95,29.69,1,32,30.8,31.74,42.41a6.31,6.31,0,0,0,4.63,6.21c6.21,1.73,17.21,3.54,26.29-1.66,0,0,4.37-16,0-25.51,0,0-5.55-4.79-7.93,0,0,0-2.38,12.54-3.57,13.41s-1.19-24.11,2.38-36c1.56-5.21-.75-9.5-3.85-12.68A23.16,23.16,0,0,0,433.49,55c-19.2-1.48-82.65-6.11-116.29-5.6a82.43,82.43,0,0,1-9-.37L288,47.09s-7.12-26.9-19.64-41A18,18,0,0,0,255.26.05Z"/><path class="cls-3" d="M162.52,41.74l5.95,13.09L197,52.45,188.69,18S164.9,27.46,162.52,41.74Z"/><path class="cls-3" d="M195.83,15.57S192.26,29.84,203,51.26H279.9l4-5.95L266,8.43S223.2,3.67,195.83,15.57Z"/><path class="cls-3" d="M423.08,110.47A26.58,26.58,0,1,1,396.5,83.89,26.58,26.58,0,0,1,423.08,110.47Z"/><path class="cls-4" d="M423.08,110.47h-3.5a23.08,23.08,0,1,1-6.76-16.32,23,23,0,0,1,6.76,16.32h7a30.08,30.08,0,1,0-8.81,21.27,30,30,0,0,0,8.81-21.27Z"/><path class="cls-4" d="M406.46,110.47H405a8.47,8.47,0,1,1-2.48-6,8.43,8.43,0,0,1,2.48,6h3a11.47,11.47,0,1,0-11.46,11.47A11.46,11.46,0,0,0,408,110.47Z"/><circle class="cls-3" cx="151.41" cy="114.04" r="25.26"/><path class="cls-4" d="M176.67,114h-3.5a21.77,21.77,0,1,1-6.37-15.39A21.69,21.69,0,0,1,173.17,114h7a28.75,28.75,0,1,0-8.42,20.34A28.7,28.7,0,0,0,180.17,114Z"/><path class="cls-4" d="M160.88,114h-1.5A8,8,0,1,1,157,108.4a7.94,7.94,0,0,1,2.34,5.64h3a11,11,0,1,0-11,11,11,11,0,0,0,11-11Z"/><polyline class="cls-3" points="0.41 29.15 0.41 29.15 0.41 29.15 0.41 29.15"/><polyline class="cls-5" points="0.41 28.9 0.41 29.15 0.41 29.4 109.19 29.62 109.19 29.12 0.41 28.9"/><polyline class="cls-5" points="101.54 44.37 0.41 44.37 0.41 44.62 0.41 44.87 101.54 44.87 101.54 44.37"/><polyline class="cls-5" points="87.26 59.83 0.41 59.83 0.41 60.08 0.41 60.33 87.26 60.33 87.26 59.83"/><polyline class="cls-5" points="0.41 72.38 0.41 72.88 78.93 73.42 78.94 73.17 78.94 72.92 0.41 72.38"/><polyline class="cls-5" points="64.66 86.01 1.01 86.01 1.01 86.26 1.01 86.51 64.66 86.51 64.66 86.01"/><polyline class="cls-5" points="145.56 13.43 0.41 13.43 0.41 13.68 0.41 13.93 145.56 13.93 145.56 13.43"/><polyline class="cls-5" points="63.65 100.35 0 100.35 0 100.6 0 100.85 63.65 100.85 63.65 100.35"/></g></g></svg>